<mxfile host="Electron" modified="2024-04-15T05:31:55.515Z" agent="Mozilla/5.0 (Windows NT 10.0; Win64; x64) AppleWebKit/537.36 (KHTML, like Gecko) draw.io/22.1.2 Chrome/114.0.5735.289 Electron/25.9.4 Safari/537.36" etag="r12HjcpeCTtP-7TeV8Eq" version="22.1.2" type="device">
  <diagram name="Страница — 1" id="8S4pq99S_nP9T2pnY3CO">
    <mxGraphModel dx="1104" dy="827" grid="1" gridSize="10" guides="1" tooltips="1" connect="1" arrows="1" fold="1" page="1" pageScale="1" pageWidth="1169" pageHeight="827" math="0" shadow="0">
      <root>
        <mxCell id="0" />
        <mxCell id="1" parent="0" />
        <mxCell id="j__bFUFM3S8NW2xsHX6b-2" value="Пользователь" style="swimlane;fontStyle=0;childLayout=stackLayout;horizontal=1;startSize=30;horizontalStack=0;resizeParent=1;resizeParentMax=0;resizeLast=0;collapsible=1;marginBottom=0;whiteSpace=wrap;html=1;" vertex="1" parent="1">
          <mxGeometry x="880" y="720" width="140" height="40" as="geometry" />
        </mxCell>
        <mxCell id="j__bFUFM3S8NW2xsHX6b-6" value="Программа" style="swimlane;fontStyle=0;childLayout=stackLayout;horizontal=1;startSize=30;horizontalStack=0;resizeParent=1;resizeParentMax=0;resizeLast=0;collapsible=1;marginBottom=0;whiteSpace=wrap;html=1;" vertex="1" parent="1">
          <mxGeometry x="560" y="160" width="140" height="60" as="geometry" />
        </mxCell>
        <mxCell id="j__bFUFM3S8NW2xsHX6b-9" value="Запись" style="text;strokeColor=none;fillColor=none;align=left;verticalAlign=middle;spacingLeft=4;spacingRight=4;overflow=hidden;points=[[0,0.5],[1,0.5]];portConstraint=eastwest;rotatable=0;whiteSpace=wrap;html=1;" vertex="1" parent="j__bFUFM3S8NW2xsHX6b-6">
          <mxGeometry y="30" width="140" height="30" as="geometry" />
        </mxCell>
        <mxCell id="j__bFUFM3S8NW2xsHX6b-10" value="Запись" style="swimlane;fontStyle=0;childLayout=stackLayout;horizontal=1;startSize=30;horizontalStack=0;resizeParent=1;resizeParentMax=0;resizeLast=0;collapsible=1;marginBottom=0;whiteSpace=wrap;html=1;" vertex="1" parent="1">
          <mxGeometry x="560" y="320" width="140" height="120" as="geometry" />
        </mxCell>
        <mxCell id="j__bFUFM3S8NW2xsHX6b-11" value="Звук" style="text;strokeColor=none;fillColor=none;align=left;verticalAlign=middle;spacingLeft=4;spacingRight=4;overflow=hidden;points=[[0,0.5],[1,0.5]];portConstraint=eastwest;rotatable=0;whiteSpace=wrap;html=1;" vertex="1" parent="j__bFUFM3S8NW2xsHX6b-10">
          <mxGeometry y="30" width="140" height="30" as="geometry" />
        </mxCell>
        <mxCell id="j__bFUFM3S8NW2xsHX6b-12" value="Видео" style="text;strokeColor=none;fillColor=none;align=left;verticalAlign=middle;spacingLeft=4;spacingRight=4;overflow=hidden;points=[[0,0.5],[1,0.5]];portConstraint=eastwest;rotatable=0;whiteSpace=wrap;html=1;" vertex="1" parent="j__bFUFM3S8NW2xsHX6b-10">
          <mxGeometry y="60" width="140" height="30" as="geometry" />
        </mxCell>
        <mxCell id="j__bFUFM3S8NW2xsHX6b-13" value="Водяной знак" style="text;strokeColor=none;fillColor=none;align=left;verticalAlign=middle;spacingLeft=4;spacingRight=4;overflow=hidden;points=[[0,0.5],[1,0.5]];portConstraint=eastwest;rotatable=0;whiteSpace=wrap;html=1;" vertex="1" parent="j__bFUFM3S8NW2xsHX6b-10">
          <mxGeometry y="90" width="140" height="30" as="geometry" />
        </mxCell>
        <mxCell id="j__bFUFM3S8NW2xsHX6b-14" value="Звук" style="swimlane;fontStyle=0;childLayout=stackLayout;horizontal=1;startSize=30;horizontalStack=0;resizeParent=1;resizeParentMax=0;resizeLast=0;collapsible=1;marginBottom=0;whiteSpace=wrap;html=1;" vertex="1" parent="1">
          <mxGeometry x="400" y="480" width="140" height="90" as="geometry" />
        </mxCell>
        <mxCell id="j__bFUFM3S8NW2xsHX6b-15" value="Расширение" style="text;strokeColor=none;fillColor=none;align=left;verticalAlign=middle;spacingLeft=4;spacingRight=4;overflow=hidden;points=[[0,0.5],[1,0.5]];portConstraint=eastwest;rotatable=0;whiteSpace=wrap;html=1;" vertex="1" parent="j__bFUFM3S8NW2xsHX6b-14">
          <mxGeometry y="30" width="140" height="30" as="geometry" />
        </mxCell>
        <mxCell id="j__bFUFM3S8NW2xsHX6b-16" value="Устройство записи" style="text;strokeColor=none;fillColor=none;align=left;verticalAlign=middle;spacingLeft=4;spacingRight=4;overflow=hidden;points=[[0,0.5],[1,0.5]];portConstraint=eastwest;rotatable=0;whiteSpace=wrap;html=1;" vertex="1" parent="j__bFUFM3S8NW2xsHX6b-14">
          <mxGeometry y="60" width="140" height="30" as="geometry" />
        </mxCell>
        <mxCell id="j__bFUFM3S8NW2xsHX6b-18" value="Видео" style="swimlane;fontStyle=0;childLayout=stackLayout;horizontal=1;startSize=30;horizontalStack=0;resizeParent=1;resizeParentMax=0;resizeLast=0;collapsible=1;marginBottom=0;whiteSpace=wrap;html=1;" vertex="1" parent="1">
          <mxGeometry x="720" y="480" width="140" height="120" as="geometry" />
        </mxCell>
        <mxCell id="j__bFUFM3S8NW2xsHX6b-19" value="Расширение" style="text;strokeColor=none;fillColor=none;align=left;verticalAlign=middle;spacingLeft=4;spacingRight=4;overflow=hidden;points=[[0,0.5],[1,0.5]];portConstraint=eastwest;rotatable=0;whiteSpace=wrap;html=1;" vertex="1" parent="j__bFUFM3S8NW2xsHX6b-18">
          <mxGeometry y="30" width="140" height="30" as="geometry" />
        </mxCell>
        <mxCell id="j__bFUFM3S8NW2xsHX6b-20" value="Выбор дисплея" style="text;strokeColor=none;fillColor=none;align=left;verticalAlign=middle;spacingLeft=4;spacingRight=4;overflow=hidden;points=[[0,0.5],[1,0.5]];portConstraint=eastwest;rotatable=0;whiteSpace=wrap;html=1;" vertex="1" parent="j__bFUFM3S8NW2xsHX6b-18">
          <mxGeometry y="60" width="140" height="30" as="geometry" />
        </mxCell>
        <mxCell id="j__bFUFM3S8NW2xsHX6b-21" value="Качество" style="text;strokeColor=none;fillColor=none;align=left;verticalAlign=middle;spacingLeft=4;spacingRight=4;overflow=hidden;points=[[0,0.5],[1,0.5]];portConstraint=eastwest;rotatable=0;whiteSpace=wrap;html=1;" vertex="1" parent="j__bFUFM3S8NW2xsHX6b-18">
          <mxGeometry y="90" width="140" height="30" as="geometry" />
        </mxCell>
        <mxCell id="j__bFUFM3S8NW2xsHX6b-22" value="Водяной знак" style="swimlane;fontStyle=0;childLayout=stackLayout;horizontal=1;startSize=30;horizontalStack=0;resizeParent=1;resizeParentMax=0;resizeLast=0;collapsible=1;marginBottom=0;whiteSpace=wrap;html=1;" vertex="1" parent="1">
          <mxGeometry x="560" y="640" width="140" height="60" as="geometry" />
        </mxCell>
        <mxCell id="j__bFUFM3S8NW2xsHX6b-23" value="Выбор изображения" style="text;strokeColor=none;fillColor=none;align=left;verticalAlign=middle;spacingLeft=4;spacingRight=4;overflow=hidden;points=[[0,0.5],[1,0.5]];portConstraint=eastwest;rotatable=0;whiteSpace=wrap;html=1;" vertex="1" parent="j__bFUFM3S8NW2xsHX6b-22">
          <mxGeometry y="30" width="140" height="30" as="geometry" />
        </mxCell>
        <mxCell id="j__bFUFM3S8NW2xsHX6b-26" value="Готовые файлы" style="swimlane;fontStyle=0;childLayout=stackLayout;horizontal=1;startSize=30;horizontalStack=0;resizeParent=1;resizeParentMax=0;resizeLast=0;collapsible=1;marginBottom=0;whiteSpace=wrap;html=1;" vertex="1" parent="1">
          <mxGeometry x="320" y="160" width="140" height="90" as="geometry" />
        </mxCell>
        <mxCell id="j__bFUFM3S8NW2xsHX6b-27" value="Видео" style="text;strokeColor=none;fillColor=none;align=left;verticalAlign=middle;spacingLeft=4;spacingRight=4;overflow=hidden;points=[[0,0.5],[1,0.5]];portConstraint=eastwest;rotatable=0;whiteSpace=wrap;html=1;" vertex="1" parent="j__bFUFM3S8NW2xsHX6b-26">
          <mxGeometry y="30" width="140" height="30" as="geometry" />
        </mxCell>
        <mxCell id="j__bFUFM3S8NW2xsHX6b-28" value="Звук" style="text;strokeColor=none;fillColor=none;align=left;verticalAlign=middle;spacingLeft=4;spacingRight=4;overflow=hidden;points=[[0,0.5],[1,0.5]];portConstraint=eastwest;rotatable=0;whiteSpace=wrap;html=1;" vertex="1" parent="j__bFUFM3S8NW2xsHX6b-26">
          <mxGeometry y="60" width="140" height="30" as="geometry" />
        </mxCell>
        <mxCell id="j__bFUFM3S8NW2xsHX6b-45" style="edgeStyle=orthogonalEdgeStyle;rounded=0;orthogonalLoop=1;jettySize=auto;html=1;exitX=1;exitY=0.25;exitDx=0;exitDy=0;entryX=0;entryY=0.25;entryDx=0;entryDy=0;" edge="1" parent="1" source="j__bFUFM3S8NW2xsHX6b-30" target="j__bFUFM3S8NW2xsHX6b-26">
          <mxGeometry relative="1" as="geometry" />
        </mxCell>
        <mxCell id="j__bFUFM3S8NW2xsHX6b-55" value="Хранит" style="edgeLabel;html=1;align=center;verticalAlign=middle;resizable=0;points=[];" vertex="1" connectable="0" parent="j__bFUFM3S8NW2xsHX6b-45">
          <mxGeometry x="-0.2167" relative="1" as="geometry">
            <mxPoint y="-12" as="offset" />
          </mxGeometry>
        </mxCell>
        <mxCell id="j__bFUFM3S8NW2xsHX6b-30" value="Система" style="swimlane;fontStyle=0;childLayout=stackLayout;horizontal=1;startSize=30;horizontalStack=0;resizeParent=1;resizeParentMax=0;resizeLast=0;collapsible=1;marginBottom=0;whiteSpace=wrap;html=1;" vertex="1" parent="1">
          <mxGeometry x="60" y="160" width="140" height="90" as="geometry" />
        </mxCell>
        <mxCell id="j__bFUFM3S8NW2xsHX6b-31" value="Windows 8, 10, 11" style="text;strokeColor=none;fillColor=none;align=left;verticalAlign=middle;spacingLeft=4;spacingRight=4;overflow=hidden;points=[[0,0.5],[1,0.5]];portConstraint=eastwest;rotatable=0;whiteSpace=wrap;html=1;" vertex="1" parent="j__bFUFM3S8NW2xsHX6b-30">
          <mxGeometry y="30" width="140" height="30" as="geometry" />
        </mxCell>
        <mxCell id="j__bFUFM3S8NW2xsHX6b-32" value="Linux" style="text;strokeColor=none;fillColor=none;align=left;verticalAlign=middle;spacingLeft=4;spacingRight=4;overflow=hidden;points=[[0,0.5],[1,0.5]];portConstraint=eastwest;rotatable=0;whiteSpace=wrap;html=1;" vertex="1" parent="j__bFUFM3S8NW2xsHX6b-30">
          <mxGeometry y="60" width="140" height="30" as="geometry" />
        </mxCell>
        <mxCell id="j__bFUFM3S8NW2xsHX6b-38" style="edgeStyle=orthogonalEdgeStyle;rounded=0;orthogonalLoop=1;jettySize=auto;html=1;exitX=0;exitY=0.5;exitDx=0;exitDy=0;entryX=0.457;entryY=1.033;entryDx=0;entryDy=0;entryPerimeter=0;" edge="1" parent="1" source="j__bFUFM3S8NW2xsHX6b-2" target="j__bFUFM3S8NW2xsHX6b-32">
          <mxGeometry relative="1" as="geometry" />
        </mxCell>
        <mxCell id="j__bFUFM3S8NW2xsHX6b-46" value="Использует" style="edgeLabel;html=1;align=center;verticalAlign=middle;resizable=0;points=[];" vertex="1" connectable="0" parent="j__bFUFM3S8NW2xsHX6b-38">
          <mxGeometry x="-0.0502" y="3" relative="1" as="geometry">
            <mxPoint x="-4" y="-13" as="offset" />
          </mxGeometry>
        </mxCell>
        <mxCell id="j__bFUFM3S8NW2xsHX6b-39" style="edgeStyle=orthogonalEdgeStyle;rounded=0;orthogonalLoop=1;jettySize=auto;html=1;exitX=0.5;exitY=0;exitDx=0;exitDy=0;entryX=1.014;entryY=-0.133;entryDx=0;entryDy=0;entryPerimeter=0;" edge="1" parent="1" source="j__bFUFM3S8NW2xsHX6b-2" target="j__bFUFM3S8NW2xsHX6b-9">
          <mxGeometry relative="1" as="geometry" />
        </mxCell>
        <mxCell id="j__bFUFM3S8NW2xsHX6b-47" value="Запускает" style="edgeLabel;html=1;align=center;verticalAlign=middle;resizable=0;points=[];" vertex="1" connectable="0" parent="j__bFUFM3S8NW2xsHX6b-39">
          <mxGeometry x="-0.2507" relative="1" as="geometry">
            <mxPoint x="-30" y="-257" as="offset" />
          </mxGeometry>
        </mxCell>
        <mxCell id="j__bFUFM3S8NW2xsHX6b-41" style="edgeStyle=orthogonalEdgeStyle;rounded=0;orthogonalLoop=1;jettySize=auto;html=1;entryX=1;entryY=0.5;entryDx=0;entryDy=0;exitX=0.5;exitY=0;exitDx=0;exitDy=0;" edge="1" parent="1" source="j__bFUFM3S8NW2xsHX6b-18" target="j__bFUFM3S8NW2xsHX6b-12">
          <mxGeometry relative="1" as="geometry">
            <mxPoint x="790" y="390" as="sourcePoint" />
          </mxGeometry>
        </mxCell>
        <mxCell id="j__bFUFM3S8NW2xsHX6b-42" style="edgeStyle=orthogonalEdgeStyle;rounded=0;orthogonalLoop=1;jettySize=auto;html=1;entryX=0;entryY=0.5;entryDx=0;entryDy=0;exitX=0.5;exitY=0;exitDx=0;exitDy=0;" edge="1" parent="1" source="j__bFUFM3S8NW2xsHX6b-14" target="j__bFUFM3S8NW2xsHX6b-11">
          <mxGeometry relative="1" as="geometry">
            <mxPoint x="410" y="410" as="sourcePoint" />
          </mxGeometry>
        </mxCell>
        <mxCell id="j__bFUFM3S8NW2xsHX6b-51" value="Входит" style="edgeLabel;html=1;align=center;verticalAlign=middle;resizable=0;points=[];" vertex="1" connectable="0" parent="j__bFUFM3S8NW2xsHX6b-42">
          <mxGeometry x="-0.2488" relative="1" as="geometry">
            <mxPoint x="20" y="-53" as="offset" />
          </mxGeometry>
        </mxCell>
        <mxCell id="j__bFUFM3S8NW2xsHX6b-43" style="edgeStyle=orthogonalEdgeStyle;rounded=0;orthogonalLoop=1;jettySize=auto;html=1;exitX=0.5;exitY=0;exitDx=0;exitDy=0;entryX=0.5;entryY=1.033;entryDx=0;entryDy=0;entryPerimeter=0;" edge="1" parent="1" source="j__bFUFM3S8NW2xsHX6b-22" target="j__bFUFM3S8NW2xsHX6b-13">
          <mxGeometry relative="1" as="geometry" />
        </mxCell>
        <mxCell id="j__bFUFM3S8NW2xsHX6b-44" style="edgeStyle=orthogonalEdgeStyle;rounded=0;orthogonalLoop=1;jettySize=auto;html=1;exitX=0;exitY=0.5;exitDx=0;exitDy=0;entryX=1;entryY=0.25;entryDx=0;entryDy=0;" edge="1" parent="1" source="j__bFUFM3S8NW2xsHX6b-9" target="j__bFUFM3S8NW2xsHX6b-26">
          <mxGeometry relative="1" as="geometry" />
        </mxCell>
        <mxCell id="j__bFUFM3S8NW2xsHX6b-54" value="Сохраняет" style="edgeLabel;html=1;align=center;verticalAlign=middle;resizable=0;points=[];" vertex="1" connectable="0" parent="j__bFUFM3S8NW2xsHX6b-44">
          <mxGeometry x="-0.1184" y="-2" relative="1" as="geometry">
            <mxPoint x="8" y="19" as="offset" />
          </mxGeometry>
        </mxCell>
        <mxCell id="j__bFUFM3S8NW2xsHX6b-48" style="edgeStyle=orthogonalEdgeStyle;rounded=0;orthogonalLoop=1;jettySize=auto;html=1;exitX=0.5;exitY=0;exitDx=0;exitDy=0;entryX=0.5;entryY=0;entryDx=0;entryDy=0;" edge="1" parent="1" source="j__bFUFM3S8NW2xsHX6b-10" target="j__bFUFM3S8NW2xsHX6b-10">
          <mxGeometry relative="1" as="geometry" />
        </mxCell>
        <mxCell id="j__bFUFM3S8NW2xsHX6b-49" style="edgeStyle=orthogonalEdgeStyle;rounded=0;orthogonalLoop=1;jettySize=auto;html=1;exitX=0.5;exitY=1;exitDx=0;exitDy=0;entryX=0.5;entryY=0;entryDx=0;entryDy=0;exitPerimeter=0;" edge="1" parent="1" source="j__bFUFM3S8NW2xsHX6b-9" target="j__bFUFM3S8NW2xsHX6b-10">
          <mxGeometry relative="1" as="geometry" />
        </mxCell>
        <mxCell id="j__bFUFM3S8NW2xsHX6b-50" value="Выполняет" style="edgeLabel;html=1;align=center;verticalAlign=middle;resizable=0;points=[];" vertex="1" connectable="0" parent="j__bFUFM3S8NW2xsHX6b-49">
          <mxGeometry x="-0.18" y="-4" relative="1" as="geometry">
            <mxPoint x="34" y="9" as="offset" />
          </mxGeometry>
        </mxCell>
        <mxCell id="j__bFUFM3S8NW2xsHX6b-52" value="Входит" style="edgeLabel;html=1;align=center;verticalAlign=middle;resizable=0;points=[];" vertex="1" connectable="0" parent="1">
          <mxGeometry x="770" y="380" as="geometry" />
        </mxCell>
        <mxCell id="j__bFUFM3S8NW2xsHX6b-53" value="Входит" style="edgeLabel;html=1;align=center;verticalAlign=middle;resizable=0;points=[];" vertex="1" connectable="0" parent="1">
          <mxGeometry x="610" y="530" as="geometry" />
        </mxCell>
      </root>
    </mxGraphModel>
  </diagram>
</mxfile>
